<svg xmlns="http://www.w3.org/2000/svg" xmlns:xlink="http://www.w3.org/1999/xlink" viewBox="0 0 65 55" fill="#fff" fill-rule="evenodd" stroke="#000" stroke-linecap="round" stroke-linejoin="round"><use xlink:href="#A" x=".5" y=".5"/><symbol id="A" overflow="visible"><g stroke="none"><g fill-rule="nonzero"><path d="M61.448 4.543V3.267c0-.705-.57-1.276-1.276-1.276h-.425c-.705 0-1.276.57-1.276 1.276v1.276h-1.276c-.705 0-1.276.57-1.276 1.276v.425c0 .705.57 1.276 1.276 1.276h1.276v1.276c0 .705.57 1.276 1.276 1.276h.425c.705 0 1.276-.57 1.276-1.276V7.52h1.276C63.43 7.52 64 6.95 64 6.244V5.82c0-.705-.57-1.276-1.276-1.276h-1.276z" fill="#f9dd05"/><path d="M33.92 11.08L20.543 11l6.57 41.734h16.005L49.687 11l-15.767.08z" fill="#f68313"/><path d="M33.92 11.08L20.543 11l6.57 41.734h12.66L46.343 11l-12.422.08z" fill="#f9dd05"/><path d="M16.72 11h34.52V7.15H16.72V11z"/><path d="M17.617 10.103h32.727V8.046H17.617v2.057zm34.52 1.792h-36.3v-5.64h36.3v5.64" fill="#000"/><path d="M44.55.896H23.17L20.663 6.67H47.06L44.55.896z"/><path d="M22.028 5.773h23.665l-1.73-3.982H23.758l-1.73 3.982zm26.397 1.79h-29.13L22.583 0h22.555l3.286 7.564" fill="#12110f"/><path d="M25.49 51.837h16.863L48.64 11.9l-14.723.076-14.713-.076L25.5 51.837zm18.395 1.79H23.958l-6.852-43.53 16.815.086 16.815-.086-6.852 43.53" fill="#000"/><path d="M50.165 22.785H17.557L20.5 39.383l13.36-.145 13.36.145 2.944-16.598z"/><path d="M33.85 38.343l12.62.137 2.624-14.798h-30.47L21.25 38.48l12.6-.137zm14.12 1.944l-14.12-.153-14.1.153L16.49 21.9h34.745L47.97 40.287" fill="#000"/><use xlink:href="#C" fill="#f1f1f1"/><use xlink:href="#C" x="-43.298" y="13.278" fill="#f46c35"/></g><path fill="#f1f1f1" d="M0 16.57c0-2.98 2.398-5.377 5.377-5.377s5.377 2.398 5.377 5.377-2.398 5.377-5.377 5.377S0 19.55 0 16.57zm3.286 0c0-1.158.933-2.09 2.09-2.09s2.09.933 2.09 2.09-.933 2.09-2.09 2.09-2.09-.933-2.09-2.09z"/></g></symbol><defs ><path id="C" d="M56.495 33.742a2.31 2.31 0 0 0 2.309-2.309 2.31 2.31 0 0 0-2.309-2.309 2.31 2.31 0 0 0-2.309 2.309 2.31 2.31 0 0 0 2.309 2.309z"/></defs></svg>