<svg xmlns="http://www.w3.org/2000/svg" width="1782" height="2500" viewBox="6.371 6.372 347.263 487.256"><g transform="matrix(12.58495 0 0 12.58495 -584.344 -1.372)"><ellipse cx="65.245" cy="28.418" rx="4.411" ry="5.324" fill="#fff" stroke="#000" stroke-width="1.1"/><path d="M58.303 39.285c.063-.197.108-.4.108-.615 0-1.359-1.361-2.463-3.04-2.463s-3.039 1.104-3.039 2.463c0 .215.044.418.108.615h5.863z" fill="#fff"/><path d="M58.303 39.285c.063-.197.108-.4.108-.615 0-1.359-1.361-2.463-3.04-2.463s-3.039 1.104-3.039 2.463c0 .215.044.418.108.615h5.863z" fill="none" stroke="#000" stroke-width="1.1" stroke-linecap="round" stroke-linejoin="round"/><path d="M68.949 39.285c.062-.197.107-.4.107-.615 0-1.359-1.361-2.463-3.041-2.463-1.679 0-3.039 1.104-3.039 2.463 0 .215.043.418.107.615h5.866z" fill="#fff"/><path d="M68.949 39.285c.062-.197.107-.4.107-.615 0-1.359-1.361-2.463-3.041-2.463-1.679 0-3.039 1.104-3.039 2.463 0 .215.043.418.107.615h5.866z" fill="none" stroke="#000" stroke-width="1.1" stroke-linecap="round" stroke-linejoin="round"/><circle cx="49.684" cy="11.836" r="2.702" fill="#fff" stroke="#000" stroke-width="1.1"/><circle cx="71.786" cy="11.836" r="2.702" fill="#fff" stroke="#000" stroke-width="1.1"/><path d="M68.226 2.352L62.822 1.08l-1.986 6.278" fill="none" stroke="#000" stroke-width="1.1" stroke-linecap="round" stroke-linejoin="round"/><ellipse cx="56.146" cy="28.418" rx="4.411" ry="5.324" fill="#fff" stroke="#000" stroke-width="1.1"/><circle cx="70.431" cy="2.789" r="2.13" fill="#fff" stroke="#000" stroke-width="1.1"/><path d="M59.181 39.289h2.99c2.655-1.383 4.624-6.34 4.624-12.262 0-6.99-2.74-12.655-6.119-12.655-3.38 0-6.119 5.666-6.119 12.655 0 5.922 1.968 10.879 4.624 12.262z" fill="#fff"/><path d="M59.181 39.289h2.99c2.655-1.383 4.624-6.34 4.624-12.262 0-6.99-2.74-12.655-6.119-12.655-3.38 0-6.119 5.666-6.119 12.655 0 5.922 1.968 10.879 4.624 12.262z" fill="none" stroke="#000" stroke-width="1.1"/><ellipse cx="60.676" cy="15.552" rx="12.238" ry="7.987" fill="#fff" stroke="#000" stroke-width="1.1"/><path fill="none" stroke="#000" stroke-width="1.1" stroke-linecap="round" stroke-linejoin="round" d="M57.457 39.285h6.596"/><g><path d="M56.437 12.001A2.021 2.021 0 0 0 54.438 14c0 1.087.912 1.969 1.999 1.969s1.969-.882 1.969-1.969c0-1.087-.882-1.999-1.969-1.999zM65.063 12.001A2.022 2.022 0 0 0 63.062 14c0 1.088.914 1.969 2.001 1.969A1.969 1.969 0 0 0 67.032 14c0-1.088-.881-1.999-1.969-1.999z" fill="#ff4500"/><path d="M56.507 19.229c1.066 1.066 2.786 1.271 4.212 1.271M64.963 19.229c-1.067 1.066-2.786 1.271-4.213 1.271" fill="none" stroke="#000" stroke-width="1.1" stroke-linecap="round"/></g></g></svg>